<?xml version="1.0" standalone="no"?>
<!DOCTYPE svg PUBLIC "-//W3C//DTD SVG 20010904//EN"
 "http://www.w3.org/TR/2001/REC-SVG-20010904/DTD/svg10.dtd">
<svg version="1.0" xmlns="http://www.w3.org/2000/svg"
 width="512.000000pt" height="512.000000pt" viewBox="0 0 512.000000 512.000000"
 preserveAspectRatio="xMidYMid meet">
<metadata>
Created by potrace 1.11, written by Peter Selinger 2001-2013
</metadata>
<g transform="translate(0.000000,512.000000) scale(0.100000,-0.100000)"
fill="#000000" stroke="none">
<path d="M2817 4804 c-1 -1 -38 -4 -82 -8 -118 -10 -281 -52 -355 -91 -14 -7
-47 -24 -73 -38 -86 -46 -180 -120 -274 -214 -50 -51 -89 -93 -87 -93 3 0 -10
-19 -29 -42 -73 -90 -171 -257 -222 -378 -44 -104 -48 -115 -50 -120 -1 -3
-10 -32 -20 -65 -10 -33 -20 -64 -21 -70 -2 -5 -13 -46 -25 -90 -11 -44 -23
-89 -25 -100 -2 -11 -6 -31 -9 -45 -16 -81 -29 -175 -26 -189 1 -7 -1 -11 -6
-8 -4 3 -8 -20 -9 -51 -1 -32 -4 -86 -7 -122 -3 -36 -6 -102 -6 -148 -1 -60
-4 -81 -13 -76 -8 5 -8 3 -2 -7 13 -20 13 -73 0 -81 -8 -5 -8 -8 0 -8 6 0 11
-33 13 -82 1 -46 8 -128 15 -182 7 -55 12 -115 12 -133 -1 -18 2 -33 5 -33 3
0 6 -24 8 -52 1 -29 4 -60 6 -68 2 -8 7 -37 10 -65 10 -68 11 -77 34 -180 10
-49 17 -93 14 -97 -2 -5 0 -8 5 -8 6 0 13 -17 18 -37 4 -21 8 -40 9 -43 0 -3
13 -42 29 -87 15 -45 24 -88 20 -94 -4 -7 -3 -9 2 -6 6 3 21 -22 34 -56 13
-34 39 -95 57 -135 18 -41 30 -79 26 -85 -3 -7 -2 -9 2 -4 5 4 32 -38 62 -94
29 -55 69 -125 88 -155 19 -30 35 -57 35 -59 0 -3 13 -24 30 -46 16 -23 27
-46 23 -52 -3 -6 -1 -7 6 -3 6 4 14 0 18 -11 4 -10 12 -23 17 -30 19 -22 31
-37 56 -73 13 -19 27 -37 30 -40 25 -22 78 -99 72 -105 -4 -5 -2 -5 4 -2 11 6
61 -52 56 -65 -1 -5 1 -7 6 -6 4 1 59 -49 122 -113 156 -155 141 -146 189
-111 22 16 39 31 37 33 -2 2 11 15 29 29 18 14 41 37 49 52 9 15 25 30 36 33
11 4 18 10 15 14 -2 5 8 19 23 33 15 14 41 42 57 63 17 22 41 50 54 64 13 15
37 45 54 68 16 23 34 40 40 36 6 -3 8 -2 4 3 -3 5 8 29 25 54 52 77 93 135 98
140 3 3 11 17 19 32 8 16 18 28 23 28 4 0 8 5 8 11 0 7 17 39 38 73 21 34 49
82 61 109 13 26 26 45 29 43 4 -2 8 7 9 21 0 14 6 29 13 33 6 4 11 10 11 14
-1 3 12 33 28 66 17 33 30 63 30 66 -2 14 24 63 31 59 5 -3 6 4 3 15 -3 11 -1
20 4 20 5 0 9 8 10 18 2 29 68 213 74 208 3 -4 5 4 4 17 -1 12 0 27 4 32 3 6
6 15 7 20 1 6 12 52 23 102 12 51 21 95 21 98 0 4 6 3 13 -1 9 -5 9 -4 1 5 -8
9 -7 32 2 84 7 40 13 87 13 105 1 18 4 31 9 29 4 -3 7 23 8 56 3 172 4 178 17
171 9 -6 9 -4 1 7 -6 8 -11 41 -11 74 0 76 -10 170 -22 213 -6 18 -10 36 -11
40 -5 46 -55 178 -92 246 -115 212 -324 401 -538 484 -183 71 -424 95 -590 59
-104 -23 -136 -31 -144 -39 -6 -4 -16 -8 -22 -8 -7 0 -48 -16 -91 -37 -43 -20
-81 -35 -85 -35 -5 1 -8 -2 -8 -6 0 -4 -14 -16 -31 -26 l-31 -18 6 48 c4 27 9
56 11 64 2 8 6 26 9 40 18 91 51 198 59 193 6 -4 7 -1 3 6 -10 16 2 64 14 56
5 -3 12 0 16 6 5 8 3 9 -6 4 -10 -6 -11 -1 -6 21 11 41 67 168 78 175 5 3 10
10 10 15 2 31 81 157 93 147 4 -5 5 -3 2 3 -8 15 22 56 35 48 7 -4 8 -2 4 5
-10 15 13 43 28 34 6 -3 8 -3 4 2 -7 7 48 79 61 80 3 1 21 15 40 33 31 30 44
36 64 33 5 -1 6 3 2 9 -8 13 121 73 137 64 7 -4 8 -3 4 4 -4 7 -1 12 6 13 7 0
20 2 28 4 8 2 33 6 55 10 22 3 45 8 52 10 6 2 14 -1 17 -8 3 -8 5 -8 5 -1 1
13 112 7 171 -9 58 -15 69 -20 65 -27 -3 -4 3 -7 13 -6 9 0 16 -5 14 -12 -1
-8 2 -11 7 -8 16 10 59 -34 85 -87 38 -77 39 -144 3 -242 -68 -189 -23 -278
143 -286 49 -3 123 28 134 56 3 9 11 13 17 9 7 -4 9 -3 6 3 -3 5 3 23 13 41
60 97 69 295 20 424 -78 207 -275 342 -529 364 -84 7 -141 11 -144 8z m-301
-1570 c-5 -14 -4 -15 8 -5 25 21 122 17 224 -10 37 -10 41 -14 30 -28 -12 -14
-11 -14 5 -2 15 12 26 9 92 -24 58 -29 93 -56 156 -122 49 -53 78 -91 75 -100
-3 -8 -2 -12 2 -9 12 7 45 -53 38 -70 -3 -8 -2 -13 3 -10 22 14 61 -151 61
-262 0 -46 -4 -81 -8 -78 -4 2 -7 -7 -6 -22 1 -38 -17 -103 -27 -96 -5 3 -6
-1 -3 -9 2 -7 -9 -40 -26 -73 -115 -218 -310 -342 -550 -348 -246 -7 -472 125
-579 338 -23 44 -43 90 -46 101 -2 11 -9 39 -15 63 -12 51 -21 183 -13 196 3
5 7 25 8 45 4 59 40 171 56 171 3 0 6 6 6 13 0 49 212 274 237 250 3 -3 6 -2
6 4 0 6 25 23 56 37 44 21 59 24 70 15 12 -9 13 -9 9 3 -5 11 10 18 62 30 37
9 70 16 72 17 2 0 0 -6 -3 -15z"/>
</g>
</svg>
