<svg version="1" xmlns="http://www.w3.org/2000/svg" width="277.333" height="277.333" viewBox="0 0 208.000000 208.000000"><path d="M87.5 3.1c-11 2-13.4 2.8-21.5 6.8C51.7 17 37.3 30.3 29 44c-15.2 25.2-16 60.1-1.8 86 5.1 9.3 9.5 14.6 38.1 45.4 9 9.6 28.3 28.8 30 29.8 3.1 1.6 10.8 2 15.3.8 3.6-1 6.5-3.4 16.1-13.5 31.6-32.7 51-55.4 55.7-64.9 7.6-15.6 10.8-35.9 8.2-51.9-1.1-7.1-4.5-11.8-7.9-11-5.4 1.3-5.8 2.7-5.4 16.2.4 16-.8 24.6-4.8 34.1-3.4 8.2-9.9 18.7-13.5 22-.3.3-1.8 2.1-3.4 4-4.5 5.5-25 27.4-37.7 40.2-7.5 7.6-12.4 11.8-13.7 11.8-4.5 0-53-51.5-62.7-66.5-7.7-12-11.1-25.6-10.2-41.5.6-10.4 1-12.8 3.3-19.8C42.4 42.2 60 25.3 84 17.9c9.8-3.1 27.9-3.3 38.3-.5 14.5 3.9 30.7 14 34.5 21.6 2.4 4.9 2 6.8-2 10.9-4.3 4.4-7.4 4.1-16.1-1.8-13.8-9.3-22.1-12.2-34.7-12.2-23.3 0-43.7 15.6-50 38.4-2.7 9.6-2.2 23.7 1 32.2 6.3 16.5 16.5 26.3 33.3 32 16.7 5.6 34.5 2.2 48.7-9.4 13.5-11 17.5-20.6 13.5-32.5-5.7-16.8-19.4-23.9-44.5-23.2-10.8.3-14.2 1.1-29.7 6.8-4.5 1.7-8.6 2.9-9 2.7-1.4-.7-.3-6.2 2.2-11.4C76.1 58 89 50 104.6 50c8.2 0 14.8 2.1 22.4 7.2 11.6 7.9 13.7 8.9 20 9.4 5.2.5 6.8.2 11.4-2 8.4-4.1 13.7-12.4 13.7-21.5.1-11.5-8.3-21.4-26.1-30.9-18.7-10-37.9-13-58.5-9.1zm29.8 85.4c9.7 1.1 16.4 5.6 19.2 13 2 5 1.1 7.7-4.1 13.5-13.5 15-40 16-54.2 2.2-4.6-4.5-9.4-12.2-9.6-15.3-.1-2.8.4-3.2 6.9-6 9.7-4.3 18-6.9 24.5-7.7 5.4-.8 7.8-.7 17.3.3z"/></svg>